<svg width="16" height="16" viewBox="0 0 16 16" fill="none" xmlns="http://www.w3.org/2000/svg">
<path d="M5.65131 8.79084L9.41881 5.02334M5.96529 5.3373H5.97157M9.10487 8.47688H9.11115M11.9305 13.1863V3.13959C11.9305 2.44601 11.3682 1.88376 10.6746 1.88376H4.39548C3.7019 1.88376 3.13965 2.44601 3.13965 3.13959V13.1863L5.33736 11.9304L7.53506 13.1863L9.73277 11.9304L11.9305 13.1863ZM6.27923 5.3373C6.27923 5.51069 6.13867 5.65126 5.96527 5.65126C5.79188 5.65126 5.65131 5.51069 5.65131 5.3373C5.65131 5.16391 5.79188 5.02334 5.96527 5.02334C6.13867 5.02334 6.27923 5.16391 6.27923 5.3373ZM9.41881 8.47688C9.41881 8.65028 9.27825 8.79084 9.10486 8.79084C8.93146 8.79084 8.7909 8.65028 8.7909 8.47688C8.7909 8.30349 8.93146 8.16292 9.10486 8.16292C9.27825 8.16292 9.41881 8.30349 9.41881 8.47688Z" stroke="white" stroke-width="1.5" stroke-linecap="round" stroke-linejoin="round"/>
</svg>
